<?xml version="1.0" encoding="UTF-8"?>
<svg version="1.1" xmlns="http://www.w3.org/2000/svg" width="2000" height="1500">
<path d="M0 0 C660 0 1320 0 2000 0 C2000 495 2000 990 2000 1500 C1340 1500 680 1500 0 1500 C0 1005 0 510 0 0 Z " fill="#FEFEFE" transform="translate(0,0)"/>
<path d="M0 0 C485.76 0 971.52 0 1472 0 C1472 110.22 1472 220.44 1472 334 C986.24 334 500.48 334 0 334 C0 223.78 0 113.56 0 0 Z " fill="#0052DE" transform="translate(264,583)"/>
<path d="M0 0 C99.66 0 199.32 0 302 0 C302 99.66 302 199.32 302 302 C202.34 302 102.68 302 0 302 C0 202.34 0 102.68 0 0 Z " fill="#FDFEFE" transform="translate(280,599)"/>
<path d="M0 0 C22.33831652 17.44694177 37.17246085 40.80597151 40.80078125 69.1875 C43.33979061 97.49611803 34.87343173 122.19987537 17.39453125 144.21875 C4.5447154 159.07113455 -13.14468661 170.24459045 -32.19921875 175.1875 C-32.81023437 175.36337646 -33.42125 175.53925293 -34.05078125 175.72045898 C-41.07038178 177.55387633 -47.98306068 177.4474667 -55.19921875 177.375 C-56.41867187 177.37435547 -57.638125 177.37371094 -58.89453125 177.37304688 C-83.56716638 177.25314746 -104.8687094 168.91006993 -123.19921875 152.1875 C-123.97652344 151.49140625 -124.75382812 150.7953125 -125.5546875 150.078125 C-142.77007061 133.84055195 -153.6361927 110.25040776 -154.421875 86.65625 C-155.03799664 56.72658923 -146.8018512 32.78920984 -126.07177734 10.67456055 C-93.07948788 -23.46336922 -38.38868438 -27.18534772 0 0 Z " fill="#0354DE" transform="translate(488.19921875,669.8125)"/>
<path d="M0 0 C0.97582031 0.00322266 1.95164062 0.00644531 2.95703125 0.00976562 C3.93285156 -0.00634766 4.90867187 -0.02246094 5.9140625 -0.0390625 C6.84605469 -0.03970703 7.77804687 -0.04035156 8.73828125 -0.04101562 C9.59486328 -0.04399658 10.45144531 -0.04697754 11.33398438 -0.05004883 C12.38489258 0.13424683 12.38489258 0.13424683 13.45703125 0.32226562 C15.75493639 3.76912333 15.70137586 5.02345514 15.68408203 9.07885742 C15.68393097 10.25985519 15.68377991 11.44085297 15.68362427 12.65763855 C15.6733017 13.93270767 15.66297913 15.20777679 15.65234375 16.52148438 C15.64951385 17.82680618 15.64668396 19.13212799 15.64376831 20.477005 C15.63613872 23.94422078 15.61649618 27.41126851 15.59436035 30.87841797 C15.5738873 34.41762011 15.56476348 37.95684944 15.5546875 41.49609375 C15.53324955 48.43821999 15.49912181 55.38023474 15.45703125 62.32226562 C16.12089844 61.91669434 16.78476563 61.51112305 17.46875 61.09326172 C18.79326172 60.29009521 18.79326172 60.29009521 20.14453125 59.47070312 C21.01464844 58.94138184 21.88476562 58.41206055 22.78125 57.86669922 C33.95561582 51.41696946 45.69019261 50.70349251 58.22265625 53.01757812 C69.86400789 56.23925451 78.93093055 63.4846634 85 73.99414062 C91.25603325 86.98320673 93.25565964 103.03817258 88.61157227 116.88452148 C86.15348616 123.38886521 83.22518934 129.2058038 78.45703125 134.32226562 C77.93496094 134.93328125 77.41289063 135.54429687 76.875 136.17382812 C69.36570222 144.43933154 59.62401684 147.83497058 48.72265625 148.57617188 C35.22771373 149.10861222 26.1138579 145.55183241 15.45703125 137.32226562 C15.49828125 138.43601562 15.53953125 139.54976562 15.58203125 140.69726562 C15.45703125 144.32226562 15.45703125 144.32226562 13.45703125 146.32226562 C11.31811523 146.56518555 11.31811523 146.56518555 8.703125 146.55273438 C7.29836914 146.54983398 7.29836914 146.54983398 5.86523438 146.546875 C4.88490234 146.53462891 3.90457031 146.52238281 2.89453125 146.50976562 C1.91033203 146.50912109 0.92613281 146.50847656 -0.08789062 146.5078125 C-7.40279343 146.46244095 -7.40279343 146.46244095 -8.54296875 145.32226562 C-8.6560405 143.47963474 -8.69874936 141.63266483 -8.71464539 139.78663635 C-8.72732452 138.58492798 -8.74000366 137.3832196 -8.75306702 136.14509583 C-8.76216211 134.80123974 -8.77114576 133.45738289 -8.7800293 132.11352539 C-8.79287453 130.70777014 -8.80612869 129.30201857 -8.81976318 127.89627075 C-8.85545454 124.06783543 -8.88464353 120.23937652 -8.91215491 116.41087461 C-8.92962913 114.02165244 -8.94850915 111.63244574 -8.96790504 109.24323845 C-9.03550295 100.91569014 -9.09791959 92.58812139 -9.15551758 84.26049805 C-9.20942537 76.48569775 -9.27452048 68.71104554 -9.34485596 60.93637806 C-9.40466687 54.27146049 -9.45675483 47.60651182 -9.50278312 40.94148487 C-9.53043414 36.95632441 -9.56125077 32.9712487 -9.5997982 28.98617744 C-9.63577012 25.23933911 -9.66216399 21.49255612 -9.68107605 17.74559402 C-9.68967703 16.36767022 -9.70174291 14.98976321 -9.71746254 13.61190224 C-9.73832872 11.73630791 -9.74567215 9.86057743 -9.75224304 7.98487854 C-9.76016215 6.93348977 -9.76808126 5.882101 -9.77624035 4.79885197 C-9.22828756 -1.01862604 -4.62753711 0.03520256 0 0 Z " fill="#FCFDFE" transform="translate(1457.54296875,675.677734375)"/>
<path d="M0 0 C-0.061875 -0.9075 -0.12375 -1.815 -0.1875 -2.75 C0 -6 0 -6 0.9375 -8.34765625 C4.29663033 -11.03877771 7.83192909 -10.53908034 12 -10.4375 C13.22976563 -10.44813477 13.22976563 -10.44813477 14.484375 -10.45898438 C20.3658967 -10.39651723 20.3658967 -10.39651723 22.5993042 -8.99992371 C24.83325238 -5.81027615 24.39914008 -2.35248799 24.35644531 1.40283203 C24.35848969 2.25997803 24.36053406 3.11712402 24.36264038 4.00024414 C24.36565111 6.83631651 24.34716501 9.67180915 24.328125 12.5078125 C24.32506824 14.47410946 24.32319149 16.44040857 24.32244873 18.40670776 C24.31784409 22.52757043 24.30341008 26.64823786 24.28125 30.76904297 C24.25293039 36.0633835 24.24203504 41.35757037 24.2375679 46.65197945 C24.23342085 50.71130932 24.22360999 54.77060781 24.21169281 58.82992172 C24.205978 60.78285342 24.20122333 62.73578815 24.19742584 64.68872452 C24.19058689 67.41118993 24.17696685 70.13353099 24.16113281 72.85595703 C24.16001495 73.67051361 24.15889709 74.48507019 24.15774536 75.3243103 C24.11468804 80.88531196 24.11468804 80.88531196 23 82 C19.52791193 82.25098924 16.0425938 82.18522096 12.5625 82.1875 C11.09200195 82.20586914 11.09200195 82.20586914 9.59179688 82.22460938 C8.65529297 82.22654297 7.71878906 82.22847656 6.75390625 82.23046875 C5.89095947 82.23457764 5.0280127 82.23868652 4.13891602 82.24291992 C2 82 2 82 0 80 C-0.1953125 77.6171875 -0.1953125 77.6171875 -0.125 74.875 C-0.10695313 73.96492187 -0.08890625 73.05484375 -0.0703125 72.1171875 C-0.04710937 71.41851563 -0.02390625 70.71984375 0 70 C-0.59425781 70.44730469 -1.18851563 70.89460937 -1.80078125 71.35546875 C-14.72720697 80.78391924 -26.91298957 85.06234975 -43 84 C-53.37998361 82.34421173 -60.46477663 76.36934943 -67.171875 68.56640625 C-76.11106528 56.01715835 -76.00149221 40.77061132 -75 26 C-74.22979565 21.62004274 -72.97013176 17.97523627 -71 14 C-70.50242187 12.97648438 -70.00484375 11.95296875 -69.4921875 10.8984375 C-63.86795304 0.35626779 -56.19103052 -6.68293028 -45 -11 C-27.78106847 -15.54673661 -14.10117362 -9.63210088 0 0 Z " fill="#FBFCFE" transform="translate(1049,740)"/>
<path d="M0 0 C2.0324137 1.24797333 4.0773897 2.33676219 6.2265625 3.3671875 C6.1853125 2.0884375 6.1440625 0.8096875 6.1015625 -0.5078125 C6.03125 -2.6875 6.03125 -2.6875 6.2265625 -4.6328125 C8.63486042 -7.04111042 9.21939806 -6.88883829 12.5078125 -6.8984375 C13.34957031 -6.90101563 14.19132812 -6.90359375 15.05859375 -6.90625 C16.37923828 -6.89464844 16.37923828 -6.89464844 17.7265625 -6.8828125 C18.60699219 -6.89054688 19.48742188 -6.89828125 20.39453125 -6.90625 C21.23628906 -6.90367187 22.07804687 -6.90109375 22.9453125 -6.8984375 C24.10450195 -6.89505371 24.10450195 -6.89505371 25.28710938 -6.89160156 C27.2265625 -6.6328125 27.2265625 -6.6328125 29.2265625 -4.6328125 C29.41998604 -1.80657023 29.48877461 0.92131172 29.46948242 3.74829102 C29.47138077 4.61504456 29.47327911 5.4817981 29.47523499 6.37481689 C29.4789491 9.24866695 29.46823035 12.12226604 29.45703125 14.99609375 C29.45583979 16.98624136 29.45538621 18.97638953 29.4556427 20.96653748 C29.45407678 25.14040642 29.44577826 29.31418971 29.43237305 33.48803711 C29.41537205 38.85078263 29.41155895 44.21343403 29.41231823 49.57620335 C29.41204694 53.68614101 29.40657248 57.79605791 29.39931679 61.90598869 C29.39612431 63.88404114 29.39416137 65.86209595 29.39342308 67.84015083 C29.39126625 70.5986346 29.38253668 73.35701647 29.37182617 76.11547852 C29.37227936 76.94095688 29.37273254 77.76643524 29.37319946 78.6169281 C29.34103686 84.25271314 29.34103686 84.25271314 28.2265625 85.3671875 C24.75522953 85.64553518 21.27023746 85.59894952 17.7890625 85.6171875 C16.80873047 85.6378125 15.82839844 85.6584375 14.81835938 85.6796875 C13.88185547 85.68484375 12.94535156 85.69 11.98046875 85.6953125 C11.11752197 85.7046582 10.2545752 85.71400391 9.36547852 85.72363281 C8.65963623 85.60600586 7.95379395 85.48837891 7.2265625 85.3671875 C5.09069572 82.16338733 4.99524075 81.34778783 5.1015625 77.6796875 C5.11960937 76.87144531 5.13765625 76.06320312 5.15625 75.23046875 C5.17945313 74.61558594 5.20265625 74.00070312 5.2265625 73.3671875 C4.62070313 73.81449219 4.01484375 74.26179687 3.390625 74.72265625 C-6.83764273 82.10274481 -16.68686902 87.76909855 -29.5234375 87.7421875 C-30.32040039 87.74057617 -31.11736328 87.73896484 -31.93847656 87.73730469 C-38.22635026 87.60668083 -43.26280134 86.51769065 -48.7734375 83.3671875 C-49.8046875 82.8103125 -50.8359375 82.2534375 -51.8984375 81.6796875 C-61.29785813 74.11928395 -67.19883929 64.87001786 -69.3984375 52.9921875 C-71.20322352 35.54592267 -69.21691701 18.71849493 -57.9609375 4.4921875 C-54.39999551 0.69076631 -50.28480198 -2.07071189 -45.7734375 -4.6328125 C-45.05800781 -5.04917969 -44.34257813 -5.46554687 -43.60546875 -5.89453125 C-28.69381281 -13.20919897 -13.11932396 -8.24765317 0 0 Z " fill="#FCFDFE" transform="translate(1353.7734375,736.6328125)"/>
<path d="M0 0 C22.33831652 17.44694177 37.17246085 40.80597151 40.80078125 69.1875 C43.33979061 97.49611803 34.87343173 122.19987537 17.39453125 144.21875 C4.5447154 159.07113455 -13.14468661 170.24459045 -32.19921875 175.1875 C-32.81023437 175.36337646 -33.42125 175.53925293 -34.05078125 175.72045898 C-41.07038178 177.55387633 -47.98306068 177.4474667 -55.19921875 177.375 C-56.41867187 177.37435547 -57.638125 177.37371094 -58.89453125 177.37304688 C-83.56716638 177.25314746 -104.8687094 168.91006993 -123.19921875 152.1875 C-123.97652344 151.49140625 -124.75382812 150.7953125 -125.5546875 150.078125 C-142.77007061 133.84055195 -153.6361927 110.25040776 -154.421875 86.65625 C-155.03799664 56.72658923 -146.8018512 32.78920984 -126.07177734 10.67456055 C-93.07948788 -23.46336922 -38.38868438 -27.18534772 0 0 Z M-113.19921875 14.1875 C-113.88113281 14.72761719 -114.56304687 15.26773438 -115.265625 15.82421875 C-128.20776799 26.28430692 -137.51790263 43.02500938 -141.19921875 59.1875 C-141.36478271 59.82574707 -141.53034668 60.46399414 -141.70092773 61.12158203 C-147.1075343 83.04129685 -142.39260952 106.40431545 -131.19921875 125.62109375 C-118.27413968 145.41262108 -99.08829763 159.8713419 -75.82421875 165.0625 C-50.64214748 169.51689798 -28.42479398 164.77536573 -7.03515625 151.17578125 C8.18971935 140.50159161 18.38903766 126.52689961 24.80078125 109.1875 C25.11660156 108.36507812 25.43242188 107.54265625 25.7578125 106.6953125 C33.14631793 86.24043539 31.05838174 63.63899897 22.1953125 44.01171875 C17.02404245 33.53881049 10.98834512 25.39842354 2.80078125 17.1875 C1.73923828 16.09115234 1.73923828 16.09115234 0.65625 14.97265625 C-17.24978455 -2.31710942 -40.23675821 -6.35357469 -64.17578125 -6.08203125 C-82.82864993 -5.58023794 -99.31854792 1.86307074 -113.19921875 14.1875 Z " fill="#0656DE" transform="translate(488.19921875,669.8125)"/>
<path d="M0 0 C1.40958984 -0.00193359 1.40958984 -0.00193359 2.84765625 -0.00390625 C3.83636719 -0.00003906 4.82507813 0.00382813 5.84375 0.0078125 C7.32681641 0.00201172 7.32681641 0.00201172 8.83984375 -0.00390625 C9.77957031 -0.00261719 10.71929688 -0.00132812 11.6875 0 C12.55568359 0.00112793 13.42386719 0.00225586 14.31835938 0.00341797 C16.34375 0.1328125 16.34375 0.1328125 17.34375 1.1328125 C17.43784479 3.15775481 17.46118122 5.1860112 17.45727539 7.21313477 C17.45719986 8.51440811 17.45712433 9.81568146 17.45704651 11.15638733 C17.45193909 12.58733152 17.44672308 14.01827532 17.44140625 15.44921875 C17.43954203 16.9051051 17.43811815 18.36099207 17.43711853 19.81687927 C17.43329365 23.65560629 17.42346364 27.49429569 17.41241455 31.33300781 C17.40219978 35.24739066 17.39762077 39.16177956 17.39257812 43.07617188 C17.38184134 50.76173593 17.36476529 58.44726895 17.34375 66.1328125 C20.38656744 64.34231742 23.03700748 62.62938303 25.59375 60.1953125 C34.36943427 52.52612755 44.57583305 51.73992632 55.83984375 51.859375 C64.59432738 52.54255655 71.59055632 56.5558359 77.34375 63.1328125 C81.28887608 69.25061671 82.46620852 74.6448334 82.48901367 81.88916016 C82.49237228 82.55952805 82.4957309 83.22989594 82.49919128 83.920578 C82.50866623 86.12936266 82.51064224 88.33807131 82.51171875 90.546875 C82.51493226 92.08336417 82.51829641 93.61985303 82.52180481 95.15634155 C82.52778635 98.37246409 82.52964556 101.58855979 82.52905273 104.8046875 C82.52895083 108.93197881 82.54263654 113.05909918 82.55982494 117.18634987 C82.5709211 120.35699256 82.57297273 123.5275935 82.57244301 126.69825363 C82.57362544 128.22054003 82.5780619 129.74282744 82.58577538 131.26509476 C82.59553319 133.38860495 82.59271489 135.51173812 82.58666992 137.63525391 C82.58809494 138.84452545 82.58951996 140.053797 82.59098816 141.29971313 C82.34375 144.1328125 82.34375 144.1328125 80.34375 146.1328125 C78.18896484 146.35986328 78.18896484 146.35986328 75.5546875 146.328125 C74.14316406 146.31845703 74.14316406 146.31845703 72.703125 146.30859375 C71.71828125 146.29183594 70.7334375 146.27507812 69.71875 146.2578125 C68.72617187 146.24878906 67.73359375 146.23976563 66.7109375 146.23046875 C64.25496866 146.20685366 61.79947832 146.17392049 59.34375 146.1328125 C58.00597202 143.45725655 58.21172828 141.39735645 58.2019043 138.40136719 C58.19486984 137.19961853 58.18783539 135.99786987 58.18058777 134.75970459 C58.17642349 133.45454895 58.17225922 132.14939331 58.16796875 130.8046875 C58.15754478 129.45427671 58.14612227 128.10387329 58.13374329 126.753479 C58.08130908 121.01488643 58.03333305 115.27642446 58.01782227 109.53759766 C58.00771243 106.02721633 57.9783104 102.51744222 57.93650246 99.00730133 C57.91827528 97.02551566 57.92083583 95.04357388 57.92375183 93.06170654 C57.88510583 84.26907383 57.88510583 84.26907383 53.34375 77.1328125 C48.36901361 73.57942937 43.25223808 73.30618778 37.34375 74.1328125 C30.49961478 76.39178051 26.10824727 82.10796004 22.59375 88.1328125 C19.64608186 95.20721604 19.04165815 101.20029789 19 108.80859375 C18.9853772 109.81496384 18.97075439 110.82133392 18.95568848 111.85820007 C18.89362925 116.14305294 18.8536301 120.4280422 18.81201172 124.71313477 C18.77839412 127.84927792 18.73328426 130.98510853 18.6875 134.12109375 C18.6822229 135.09500565 18.6769458 136.06891754 18.67150879 137.07234192 C18.65809448 137.97055161 18.64468018 138.86876129 18.63085938 139.79418945 C18.62356812 140.58581985 18.61627686 141.37745026 18.60876465 142.19306946 C18.34375 144.1328125 18.34375 144.1328125 16.34375 146.1328125 C14.20483398 146.37573242 14.20483398 146.37573242 11.58984375 146.36328125 C10.18508789 146.36038086 10.18508789 146.36038086 8.75195312 146.35742188 C7.77162109 146.34517578 6.79128906 146.33292969 5.78125 146.3203125 C4.79705078 146.31966797 3.81285156 146.31902344 2.79882812 146.31835938 C-4.51607468 146.27298782 -4.51607468 146.27298782 -5.65625 145.1328125 C-5.75493875 143.27484269 -5.78257166 141.41307907 -5.78323364 139.55249023 C-5.78605347 138.34092255 -5.78887329 137.12935486 -5.79177856 135.881073 C-5.78983397 134.52618393 -5.78778578 133.17129502 -5.78564453 131.81640625 C-5.78699854 130.39917964 -5.78877847 128.98195337 -5.79095459 127.56472778 C-5.79552899 123.70533009 -5.79373934 119.84595901 -5.7905755 115.98656082 C-5.78805193 111.9564532 -5.79038943 107.92634794 -5.79196167 103.89624023 C-5.79378338 97.1271117 -5.79137703 90.35799407 -5.78662109 83.58886719 C-5.78117847 75.75164765 -5.78294113 67.91445413 -5.7884475 60.07723522 C-5.7929786 53.36047994 -5.79362919 46.64373252 -5.79100883 39.9269762 C-5.78944604 35.91004319 -5.78925234 31.89312242 -5.79254532 27.87619019 C-5.795424 24.10059256 -5.79344841 20.32502863 -5.78765106 16.54943466 C-5.78632344 15.15983003 -5.78671761 13.77022258 -5.78891373 12.38061905 C-5.79162513 10.49145862 -5.7876305 8.60229203 -5.78323364 6.71313477 C-5.78285662 5.65344986 -5.78247959 4.59376495 -5.78209114 3.50196838 C-5.5598422 -0.68221478 -3.71497718 0.00482644 0 0 Z " fill="#FCFDFE" transform="translate(875.65625,675.8671875)"/>
<path d="M0 0 C1.39895508 -0.01836914 1.39895508 -0.01836914 2.82617188 -0.03710938 C4.16325195 -0.04000977 4.16325195 -0.04000977 5.52734375 -0.04296875 C6.348396 -0.04707764 7.16944824 -0.05118652 8.01538086 -0.05541992 C10.0625 0.1875 10.0625 0.1875 12.0625 2.1875 C12.30300903 4.85769653 12.30300903 4.85769653 12.28955078 8.28955078 C12.28939972 9.57072784 12.28924866 10.85190491 12.28909302 12.17190552 C12.27887895 13.57554274 12.26844695 14.9791784 12.2578125 16.3828125 C12.25408291 17.81484785 12.25123569 19.24688575 12.24923706 20.67892456 C12.24159627 24.45028717 12.22194408 28.22149604 12.1998291 31.99279785 C12.17938019 35.84022949 12.1702374 39.68768594 12.16015625 43.53515625 C12.1386985 51.08600764 12.10455732 58.63673229 12.0625 66.1875 C15.07062804 64.41952484 17.64292142 62.7614842 20.125 60.3125 C28.64721316 53.01295982 38.11066956 51.23925348 48.99609375 51.76953125 C56.82823071 52.41932741 63.79948514 54.96576962 69.5625 60.41015625 C75.16216879 67.04518047 77.18084913 73.39412493 77.20776367 81.94384766 C77.21112228 82.61421555 77.2144809 83.28458344 77.21794128 83.9752655 C77.22741623 86.18405016 77.22939224 88.39275881 77.23046875 90.6015625 C77.23368226 92.13805167 77.23704641 93.67454053 77.24055481 95.21102905 C77.24653635 98.42715159 77.24839556 101.64324729 77.24780273 104.859375 C77.24770083 108.98666631 77.26138654 113.11378668 77.27857494 117.24103737 C77.2896711 120.41168006 77.29172273 123.582281 77.29119301 126.75294113 C77.29237544 128.27522753 77.2968119 129.79751494 77.30452538 131.31978226 C77.31428319 133.44329245 77.31146489 135.56642562 77.30541992 137.68994141 C77.30684494 138.89921295 77.30826996 140.1084845 77.30973816 141.35440063 C77.0625 144.1875 77.0625 144.1875 75.0625 146.1875 C72.90771484 146.41455078 72.90771484 146.41455078 70.2734375 146.3828125 C68.86191406 146.37314453 68.86191406 146.37314453 67.421875 146.36328125 C66.43703125 146.34652344 65.4521875 146.32976562 64.4375 146.3125 C63.44492188 146.30347656 62.45234375 146.29445313 61.4296875 146.28515625 C58.97371866 146.26154116 56.51822832 146.22860799 54.0625 146.1875 C52.73700211 143.53650423 52.92326784 141.5165997 52.90478516 138.54785156 C52.89452301 137.36612366 52.88426086 136.18439575 52.87368774 134.96685791 C52.86638641 133.68357605 52.85908508 132.40029419 52.8515625 131.078125 C52.83068127 129.06931063 52.80978262 127.06049627 52.78786278 125.05169296 C52.73468676 120.08954382 52.69054542 115.1273868 52.66113281 110.16503906 C52.64420825 107.38444153 52.61948724 104.60412004 52.58627319 101.82366943 C52.55531807 99.20386951 52.53588861 96.58390249 52.52920532 93.96392822 C52.51263885 92.76959167 52.49607239 91.57525513 52.47900391 90.34472656 C52.47091705 89.29818909 52.4628302 88.25165161 52.45449829 87.17340088 C51.87719267 82.77599045 50.36341277 79.3664522 47.0625 76.375 C42.29533385 73.5444951 37.43772898 73.74939356 32.0625 74.1875 C25.49240685 76.24870569 20.99132225 81.6435796 17.765625 87.5703125 C15.44377783 92.66828128 13.95569034 97.20049908 13.88891602 102.83251953 C13.87542618 103.74671661 13.86193634 104.6609137 13.84803772 105.60281372 C13.83759933 106.58208832 13.82716095 107.56136292 13.81640625 108.5703125 C13.78348978 110.64453582 13.75027779 112.71875447 13.71679688 114.79296875 C13.66923788 118.06295789 13.62475601 121.33292519 13.58569336 124.60302734 C13.5461314 127.75898192 13.49457394 130.91456202 13.44140625 134.0703125 C13.4329921 135.05363556 13.42457794 136.03695862 13.41590881 137.05007935 C13.39926682 137.95797211 13.38262482 138.86586487 13.36547852 139.80126953 C13.35517105 140.60194855 13.34486359 141.40262756 13.33424377 142.22756958 C13.0625 144.1875 13.0625 144.1875 11.0625 146.1875 C8.92358398 146.43041992 8.92358398 146.43041992 6.30859375 146.41796875 C4.90383789 146.41506836 4.90383789 146.41506836 3.47070312 146.41210938 C2.49037109 146.39986328 1.51003906 146.38761719 0.5 146.375 C-0.48419922 146.37435547 -1.46839844 146.37371094 -2.48242188 146.37304688 C-9.79732468 146.32767532 -9.79732468 146.32767532 -10.9375 145.1875 C-11.03618875 143.32953019 -11.06382166 141.46776657 -11.06448364 139.60717773 C-11.06730347 138.39561005 -11.07012329 137.18404236 -11.07302856 135.9357605 C-11.07108397 134.58087143 -11.06903578 133.22598252 -11.06689453 131.87109375 C-11.06824854 130.45386714 -11.07002847 129.03664087 -11.07220459 127.61941528 C-11.07677899 123.76001759 -11.07498934 119.90064651 -11.0718255 116.04124832 C-11.06930193 112.0111407 -11.07163943 107.98103544 -11.07321167 103.95092773 C-11.07503338 97.1817992 -11.07262703 90.41268157 -11.06787109 83.64355469 C-11.06242847 75.80633515 -11.06419113 67.96914163 -11.0696975 60.13192272 C-11.0742286 53.41516744 -11.07487919 46.69842002 -11.07225883 39.9816637 C-11.07069604 35.96473069 -11.07050234 31.94780992 -11.07379532 27.93087769 C-11.076674 24.15528006 -11.07469841 20.37971613 -11.06890106 16.60412216 C-11.06757344 15.21451753 -11.06796761 13.82491008 -11.07016373 12.43530655 C-11.07287513 10.54614612 -11.0688805 8.65697953 -11.06448364 6.76782227 C-11.06410662 5.70813736 -11.06372959 4.64845245 -11.06334114 3.55665588 C-10.77243636 -1.92008062 -4.26945209 0.00293837 0 0 Z " fill="#FCFDFE" transform="translate(1103.9375,675.8125)"/>
<path d="M0 0 C0.5644718 7.33813334 -1.44672896 13.16088115 -4 20 C-7.54560339 20.0805819 -10.59593529 19.98827685 -14 19 C-21.5387326 17.2396868 -30.43413986 16.36760756 -37.625 19.6875 C-40.89973243 21.72542362 -43.21187156 23.49824847 -45 27 C-45.87521715 33.4886789 -45.51139614 39.36048499 -42 45 C-36.36014352 51.80226965 -28.81129362 55.35318458 -21.10058594 59.28833008 C-8.86508515 65.56606097 1.11476453 72.52656519 6 86 C8.8730813 97.77963333 7.05093938 109.06336441 1.4609375 119.61328125 C-4.39284361 129.17654397 -13.96178457 133.68887236 -24.4921875 136.6484375 C-31.49122129 138.32036574 -38.26997424 138.44293863 -45.4375 138.375 C-47.26764648 138.39240234 -47.26764648 138.39240234 -49.13476562 138.41015625 C-69.6553 138.3447 -69.6553 138.3447 -75 133 C-75.71154423 126.45379308 -73.89922805 120.23891494 -72 114 C-71.505 113.505 -71.505 113.505 -71 113 C-69.20512995 113.0643113 -67.41261222 113.20139986 -65.625 113.375 C-64.64789062 113.46523438 -63.67078125 113.55546875 -62.6640625 113.6484375 C-60 114 -60 114 -57 115 C-46.13096577 115.569174 -35.53451053 116.08406908 -26 110.125 C-21.33965512 105.17338357 -21.62327734 99.62656447 -21.76171875 93.15625 C-22.21366194 87.16985498 -23.96275871 83.71706835 -28.453125 79.640625 C-33.12349473 75.63669892 -38.19661344 73.18673892 -43.75 70.625 C-57.7525873 63.85731525 -68.78094941 57.5065016 -74.375 42.25 C-76.30330886 32.30715742 -75.97054861 21.95776376 -71 13 C-63.820018 2.54121016 -53.62578397 -2.83813014 -41.39453125 -5.53125 C-27.24919741 -7.48457573 -12.95556142 -6.32713464 0 0 Z " fill="#FBFCFE" transform="translate(846,685)"/>
<path d="M0 0 C1.27149399 -0.00630432 2.54298798 -0.01260864 3.85301208 -0.019104 C5.24714292 -0.01552394 6.6412725 -0.01142191 8.03540039 -0.00683594 C9.46025153 -0.00818278 10.88510222 -0.01012348 12.30995178 -0.01263428 C15.29847584 -0.01558559 18.28688044 -0.01128838 21.27539062 -0.00195312 C25.10672251 0.00943119 28.93777388 0.00288863 32.76909542 -0.00909805 C35.71246961 -0.01632533 38.65577732 -0.01402457 41.59915352 -0.00884247 C43.01175533 -0.00750783 44.42436316 -0.0091472 45.83695793 -0.01380157 C47.81187703 -0.01887959 49.78681727 -0.00976774 51.76171875 0 C53.44810707 0.00238678 53.44810707 0.00238678 55.16856384 0.00482178 C57.94555664 0.25878906 57.94555664 0.25878906 60.94555664 2.25878906 C60.35125551 6.0919241 59.22165398 8.97270053 57.35571289 12.36425781 C56.82373291 13.33862793 56.29175293 14.31299805 55.74365234 15.31689453 C55.17090576 16.34959473 54.59815918 17.38229492 54.00805664 18.44628906 C53.12670044 20.05334717 53.12670044 20.05334717 52.22753906 21.69287109 C50.47403475 24.88552067 48.71125787 28.07287208 46.94555664 31.25878906 C46.47311523 32.1139209 46.00067383 32.96905273 45.51391602 33.85009766 C42.21625118 39.81877212 38.89783388 45.7757333 35.5637207 51.72412109 C34.62257123 53.40326869 33.68237005 55.08294817 32.74316406 56.76318359 C31.85755713 58.34745189 30.96980718 59.93052476 30.07958984 61.51220703 C29.68344482 62.22135254 29.2872998 62.93049805 28.87915039 63.66113281 C28.35405884 64.59687134 28.35405884 64.59687134 27.81835938 65.55151367 C26.80670742 67.4248938 26.80670742 67.4248938 25.94555664 70.25878906 C27.52022705 70.24307861 27.52022705 70.24307861 29.12670898 70.22705078 C33.01420697 70.19090453 36.90169005 70.16790828 40.78930664 70.14892578 C42.4732513 70.1388559 44.15717844 70.12519918 45.84106445 70.10791016 C48.25875165 70.08370481 50.67620807 70.0723161 53.09399414 70.06347656 C53.84925385 70.05315399 54.60451355 70.04283142 55.38265991 70.03219604 C57.23849644 70.03179588 59.09374944 70.1365619 60.94555664 70.25878906 C63.31123886 72.62447128 63.20127368 73.11111132 63.21118164 76.32128906 C63.21504883 77.51625 63.21504883 77.51625 63.21899414 78.73535156 C63.21125977 79.56808594 63.20352539 80.40082031 63.19555664 81.25878906 C63.2071582 82.50789062 63.2071582 82.50789062 63.21899414 83.78222656 C63.21641602 84.57886719 63.21383789 85.37550781 63.21118164 86.19628906 C63.20892578 86.9271875 63.20666992 87.65808594 63.2043457 88.41113281 C62.94555664 90.25878906 62.94555664 90.25878906 60.94555664 92.25878906 C58.00961304 92.4992981 58.00961304 92.4992981 54.20092773 92.48583984 C53.16173439 92.48627792 53.16173439 92.48627792 52.10154724 92.48672485 C49.8072363 92.48532937 47.51324848 92.46975825 45.21899414 92.45410156 C43.63001686 92.4503722 42.04103728 92.44752487 40.45205688 92.44552612 C36.2664151 92.4378836 32.08091174 92.41822987 27.89532471 92.39611816 C23.6256294 92.37567302 19.35591177 92.36652726 15.08618164 92.35644531 C6.70590973 92.3349845 -1.67424961 92.30084117 -10.05444336 92.25878906 C-11.07066155 87.95340817 -10.95241589 86.22864765 -8.76538086 82.32910156 C-8.24226318 81.380271 -7.71914551 80.43144043 -7.18017578 79.45385742 C-6.60243408 78.44073486 -6.02469238 77.4276123 -5.42944336 76.38378906 C-4.84203369 75.32748291 -4.25462402 74.27117676 -3.64941406 73.18286133 C-1.79969974 69.8659878 0.07055869 66.56142561 1.94555664 63.25878906 C3.10605175 61.20299073 4.26621845 59.14700697 5.42602539 57.09082031 C7.07856902 54.16517051 8.73289428 51.24059196 10.39233398 48.31884766 C18.01615362 35.67643186 18.01615362 35.67643186 23.94555664 22.25878906 C22.54478882 22.26664429 22.54478882 22.26664429 21.11572266 22.2746582 C17.66242868 22.29166526 14.20917897 22.30422208 10.75585938 22.3137207 C9.25910746 22.31876027 7.76236048 22.32559194 6.265625 22.33422852 C4.11855857 22.34631065 1.97155702 22.35202098 -0.17553711 22.35644531 C-2.11577759 22.36430054 -2.11577759 22.36430054 -4.09521484 22.37231445 C-7.05444336 22.25878906 -7.05444336 22.25878906 -8.05444336 21.25878906 C-8.30410903 18.12055457 -8.23966127 14.96829294 -8.24194336 11.82128906 C-8.25418945 10.93634766 -8.26643555 10.05140625 -8.27905273 9.13964844 C-8.28098633 8.29337891 -8.28291992 7.44710937 -8.28491211 6.57519531 C-8.289021 5.7960376 -8.29312988 5.01687988 -8.29736328 4.21411133 C-7.69357847 -0.64590125 -3.97243247 0.00562625 0 0 Z " fill="#FCFDFE" transform="translate(1207.054443359375,729.7412109375)"/>
<path d="M0 0 C7.80232116 4.62642527 11.1892736 10.7631333 13.99609375 19.18359375 C14.98769609 27.89668976 13.07644948 36.61210921 7.62109375 43.62109375 C1.8430318 49.26158279 -3.79537878 52.21181067 -11.87890625 52.49609375 C-19.71895529 52.31951607 -26.90695082 49.39127771 -32.44921875 43.69921875 C-37.61889246 37.73193824 -37.2757635 32.53020315 -37.37890625 24.99609375 C-37.41628906 23.97966797 -37.45367188 22.96324219 -37.4921875 21.91601562 C-37.57266452 14.99052061 -36.48425726 10.53965737 -32.00390625 5.18359375 C-23.27738991 -3.54292259 -10.96376219 -5.6479987 0 0 Z " fill="#0354DE" transform="translate(1510.00390625,749.81640625)"/>
<path d="M0 0 C4.77158454 3.78890153 8.45245669 8.13627144 9.44165039 14.28710938 C9.63694931 17.23059764 9.67139838 20.13628127 9.65234375 23.0859375 C9.68457031 24.0759375 9.71679688 25.0659375 9.75 26.0859375 C9.75965772 33.40648695 7.99696595 38.27272636 3.02734375 43.7109375 C-5.26184797 50.20133494 -13.69878145 50.64295568 -23.97265625 49.7109375 C-27.27361681 48.61403446 -29.45259187 47.0810667 -31.97265625 44.7109375 C-32.60816406 44.12957031 -33.24367188 43.54820312 -33.8984375 42.94921875 C-39.99643072 36.72497308 -41.96821417 29.90169281 -42.53515625 21.3359375 C-42.29226861 13.89090329 -39.20331701 7.0249288 -34.00390625 1.69140625 C-24.20749138 -6.05152935 -10.59303186 -6.92217923 0 0 Z " fill="#0354DE" transform="translate(1039.97265625,752.2890625)"/>
<path d="M0 0 C4.6777877 3.01510466 8.79867138 7.4840615 11.296875 12.48046875 C11.62077682 16.34843051 11.62148748 20.2256297 11.671875 24.10546875 C11.72794922 25.70841797 11.72794922 25.70841797 11.78515625 27.34375 C11.86322793 34.39622487 10.94038943 39.05458103 6.296875 44.48046875 C0.70011646 49.79021403 -4.89215032 52.0343265 -12.578125 51.91796875 C-13.28702881 51.90894531 -13.99593262 51.89992188 -14.72631836 51.890625 C-22.67759592 51.62707707 -26.97817632 49.50769623 -32.453125 43.91796875 C-37.81406017 37.30573979 -40.49979643 29.40373794 -40.08203125 20.88671875 C-38.73566367 12.33659062 -33.66061978 5.35692392 -26.9296875 0.09375 C-18.92869843 -4.71697127 -8.24968446 -3.73392581 0 0 Z " fill="#0253DE" transform="translate(1347.703125,750.51953125)"/>
<path d="M0 0 C0.886875 -0.00257813 1.77375 -0.00515625 2.6875 -0.0078125 C4.0796875 0.00378906 4.0796875 0.00378906 5.5 0.015625 C6.428125 0.00789062 7.35625 0.00015625 8.3125 -0.0078125 C9.6428125 -0.00394531 9.6428125 -0.00394531 11 0 C11.8146875 0.00225586 12.629375 0.00451172 13.46875 0.00683594 C15.5 0.265625 15.5 0.265625 17.5 2.265625 C17.69863343 5.05613591 17.77269851 7.74741548 17.75878906 10.5390625 C17.7622937 11.39445618 17.76579834 12.24984985 17.76940918 13.13116455 C17.77823477 15.96773314 17.77237445 18.80405373 17.765625 21.640625 C17.76697141 23.60595752 17.76891174 25.57128972 17.77142334 27.53662109 C17.77437572 31.65921189 17.77007328 35.78171613 17.76074219 39.90429688 C17.7493476 45.1974883 17.75590646 50.49047691 17.76788712 55.78366089 C17.77510263 59.84303322 17.77281921 63.9023572 17.76763153 67.96173096 C17.76629418 69.91383895 17.76794573 71.86595128 17.77259064 73.8180542 C17.7776508 76.54288415 17.76995288 79.26738236 17.75878906 81.9921875 C17.76283752 82.80471985 17.76688599 83.6172522 17.77105713 84.45440674 C17.72852813 90.03709687 17.72852813 90.03709687 15.5 92.265625 C13.36108398 92.50854492 13.36108398 92.50854492 10.74609375 92.49609375 C9.34133789 92.49319336 9.34133789 92.49319336 7.90820312 92.49023438 C6.92787109 92.47798828 5.94753906 92.46574219 4.9375 92.453125 C3.95330078 92.45248047 2.96910156 92.45183594 1.95507812 92.45117188 C-5.35982468 92.40580032 -5.35982468 92.40580032 -6.5 91.265625 C-6.60582603 88.506987 -6.64677854 85.77325265 -6.64526367 83.01391602 C-6.64862228 82.14891479 -6.6519809 81.28391357 -6.65544128 80.3927002 C-6.66498113 77.51829615 -6.6668959 74.64395016 -6.66796875 71.76953125 C-6.67117919 69.78034948 -6.6745431 67.79116795 -6.67805481 65.80198669 C-6.68405366 61.62636772 -6.68589393 57.45076947 -6.68530273 53.27514648 C-6.68520106 47.91356067 -6.69885515 42.55210714 -6.71607494 37.19055271 C-6.72717064 33.08057541 -6.72922269 28.97063033 -6.72869301 24.86063957 C-6.72987673 22.8834074 -6.7343203 20.9061745 -6.74202538 18.92895699 C-6.7517765 16.16811879 -6.74896666 13.40757096 -6.74291992 10.64672852 C-6.74853943 9.82327438 -6.75415894 8.99982025 -6.75994873 8.15141296 C-6.72666482 2.19874809 -6.16983571 0.0170842 0 0 Z " fill="#FDFDFE" transform="translate(1410.5,729.734375)"/>
<path d="M0 0 C1.17208008 -0.0103125 2.34416016 -0.020625 3.55175781 -0.03125 C25.7913791 0.1944693 46.11875055 9.83238977 61.75 25.4375 C62.52085937 26.19675781 63.29171875 26.95601562 64.0859375 27.73828125 C79.62074077 43.9358321 87.31493711 66.17033342 87.10131836 88.40209961 C86.3937074 112.94165307 75.23866456 134.66460616 57.75 151.4375 C39.1824636 167.96234551 16.90973111 173.71779449 -7.44873047 172.61328125 C-31.05364915 171.13205923 -51.13534397 159.59323194 -66.78369141 142.16992188 C-83.08314977 122.91235335 -88.23428924 99.1335336 -86.25 74.4375 C-84.36097056 58.53567013 -77.12104561 43.91888878 -67.25 31.4375 C-66.37988281 30.32181641 -66.37988281 30.32181641 -65.4921875 29.18359375 C-48.84961376 9.16376132 -25.494798 0.18682396 0 0 Z M-63.5 31.875 C-79.99652447 51.46462281 -84.78445663 73.67840188 -83.01171875 98.81640625 C-80.09831738 120.44620426 -66.96217812 140.35736111 -49.9140625 153.515625 C-37.55117083 162.43430931 -23.55847933 168.3344873 -8.25 169.4375 C-7.53392578 169.49196289 -6.81785156 169.54642578 -6.08007812 169.60253906 C15.74537911 171.04727166 36.52029704 164.79536613 53.34375 150.59375 C69.41907321 136.18859024 81.33296495 117.44886678 82.97167969 95.46337891 C83.87465369 71.70435777 79.75716704 50.77506606 63.75 32.4375 C63.28207031 31.839375 62.81414062 31.24125 62.33203125 30.625 C50.81171305 16.1681301 31.88424066 6.26285816 13.75 3.4375 C9.87047518 3.14602321 6.01435517 3.10359924 2.125 3.125 C1.06829102 3.12991455 0.01158203 3.1348291 -1.07714844 3.13989258 C-26.03477587 3.51162626 -46.71184025 13.68782694 -63.5 31.875 Z " fill="#EAF0FC" transform="translate(431.25,663.5625)"/>
<path d="M0 0 C4.30543683 2.23551528 7.60229159 4.7579005 10 9 C10.82107271 14.0018409 10.54786497 17.84105487 8.375 22.4375 C4.75662327 26.34153805 1.77129163 27.77858855 -3.5 28.4375 C-8.73996601 27.78250425 -11.48468871 25.31592823 -15.375 21.9375 C-17.8815158 17.40649067 -17.75431825 13.05926581 -17 8 C-13.28517174 1.39586087 -7.49186599 -1.32469143 0 0 Z " fill="#FAFBFE" transform="translate(1420,682)"/>
<path d="M0 0 C4.54199814 0.70479281 5.78879537 2.01724421 8.625 5.5625 C11.29219475 9.35713214 12.03545031 11.93032578 12 16.5625 C12.00773437 17.573125 12.01546875 18.58375 12.0234375 19.625 C11.56680355 22.99155617 10.711237 24.89192347 8.625 27.5625 C4.58893053 28.23517824 2.4421913 28.02681324 -1.125 26 C-6.45743289 20.2231977 -6.71497889 14.92190683 -6.7734375 7.33203125 C-6.09559492 2.62036078 -4.71332643 0.78555441 0 0 Z " fill="#EBF1FC" transform="translate(416.375,730.4375)"/>
<path d="M0 0 C2.21826181 1.62846514 2.91319376 2.54563579 3.43359375 5.26953125 C3.4424613 11.04230509 2.96751707 14.49633197 -1 19 C-3.56706216 21.50124005 -5.09555758 22.82772525 -8.625 23.5 C-11 23 -11 23 -12.8125 21.5625 C-14.62099185 17.65996495 -14.7529267 14.22053407 -14 10 C-11.05837931 3.3841711 -7.74352446 -0.80661713 0 0 Z " fill="#EAF0FC" transform="translate(441,755)"/>
<path d="M0 0 C0.99 0.33 1.98 0.66 3 1 C2.95359375 1.59425781 2.9071875 2.18851563 2.859375 2.80078125 C2.35341929 14.41969265 6.61012097 21.90181736 13.69921875 30.8125 C16.13806077 34.19126925 17.87893195 37.55066232 19.625 41.3125 C25.00599864 52.49315622 32.11689278 57.14577152 43.625 61.3125 C44.40875 61.539375 45.1925 61.76625 46 62 C46 62.99 46 63.98 46 65 C36.96275327 64.41061434 28.94843383 59.99739981 22.35546875 53.89453125 C17.89400729 48.41203881 14.85213028 42.04583127 11.5859375 35.8046875 C9.62565941 32.08087717 7.50418581 28.64174534 5 25.25 C-0.68121122 17.42981956 -1.80510479 10.67674031 -1 1 C-0.67 0.67 -0.34 0.34 0 0 Z " fill="#E8F0FC" transform="translate(359,751)"/>
<path d="M0 0 C2 0 2 0 4.5625 2.4375 C5.366875 3.283125 6.17125 4.12875 7 5 C8.00452662 6.23624298 8.00452662 6.23624298 10.0378418 6.03417969 C10.91609619 5.99711914 11.79435059 5.96005859 12.69921875 5.921875 C13.66150391 5.89609375 14.62378906 5.8703125 15.61523438 5.84375 C17.64443944 5.78182893 19.67322886 5.70400358 21.70117188 5.609375 C30.01686154 5.43232772 30.01686154 5.43232772 33.46484375 8.05078125 C36.30303014 11.3525235 38.06410801 14.51438748 39.875 18.4375 C42.60901104 24.00422042 45.05929846 27.76792928 50.53125 31.01953125 C51.0159375 31.34308594 51.500625 31.66664063 52 32 C52 32.66 52 33.32 52 34 C46.04553614 33.11557186 42.85026757 30.54967398 39 26 C36.62314667 22.18114018 34.64439361 18.16676376 32.6640625 14.1328125 C31.35398234 10.93527466 31.35398234 10.93527466 29 10 C27.08499697 9.84101146 27.08499697 9.84101146 25 9.875 C24.29875 9.87242187 23.5975 9.86984375 22.875 9.8671875 C20.90846225 9.88622764 20.90846225 9.88622764 19 11 C13.28712592 11.5941389 8.90156792 11.23057886 4 8 C1.125 5.3125 1.125 5.3125 -1 3 C-0.67 2.01 -0.34 1.02 0 0 Z " fill="#EAF0FC" transform="translate(426,684)"/>
<path d="M0 0 C2 2 2 2 2.375 5.75 C2.27178581 10.11675424 0.81194976 12.62566028 -2 16 C-5.6441774 18.4294516 -7.71241272 18.16179575 -12 18 C-13.60632723 14.78734554 -13.47931944 11.48478188 -13 8 C-9.75037699 1.94897785 -6.99224501 -0.59508468 0 0 Z " fill="#EDF3FC" transform="translate(466,745)"/>
<path d="M0 0 C0 1.32 0 2.64 0 4 C-1.0725 4.19335938 -2.145 4.38671875 -3.25 4.5859375 C-6.5769931 5.54152757 -6.98175519 5.97517402 -9.1875 8.9765625 C-9.81096181 10.18293036 -10.41448299 11.3997662 -11 12.625 C-11.67195005 13.89924773 -12.3503513 15.17011438 -13.03515625 16.4375 C-13.36531738 17.05109375 -13.69547852 17.6646875 -14.03564453 18.296875 C-17.39042819 24.22167773 -21.79778798 28.88135827 -28.1953125 31.3828125 C-34.64001905 32.80100698 -43.32789653 33.51510411 -49.48046875 30.9765625 C-49.98191406 30.65429688 -50.48335938 30.33203125 -51 30 C-51 29.34 -51 28.68 -51 28 C-49.081875 28.06960938 -49.081875 28.06960938 -47.125 28.140625 C-45.41669021 28.17817027 -43.70835492 28.21456745 -42 28.25 C-40.74123047 28.30027344 -40.74123047 28.30027344 -39.45703125 28.3515625 C-32.75774634 28.45542738 -27.40840182 27.11341458 -22.36669922 22.50805664 C-18.06974869 17.9631756 -15.07143611 12.3570123 -11.9296875 6.98828125 C-8.4567252 1.61011089 -6.58638936 -0.59876267 0 0 Z " fill="#EDF2FC" transform="translate(483,769)"/>
<path d="M0 0 C3.0625 1.6875 3.0625 1.6875 5 4 C5.5625 6.5 5.5625 6.5 5 9 C3.3180666 11.6325914 1.91203774 12.73455618 -1.09375 13.609375 C-5.10908326 14.27859721 -7.34989796 14.31841733 -11.0625 12.5 C-13 10 -13 10 -13.5625 6.4375 C-13 3 -13 3 -11.5625 1.0625 C-7.68363744 -0.54580887 -4.13281345 -0.66183845 0 0 Z " fill="#E6EEFB" transform="translate(413,760)"/>
<path d="M0 0 C-1 3 -1 3 -3.80078125 4.61328125 C-6.13253593 5.74154964 -8.46586113 6.86657831 -10.80078125 7.98828125 C-14.50431706 10.31712245 -16.06421822 12.08604706 -18 16 C-18.47343947 19.70609511 -18.47343947 19.70609511 -18.375 23.625 C-18.51537906 30.53388322 -20.03604198 35.32970505 -23.625 41.3515625 C-25.13639007 44.26270586 -25.61985196 46.759238 -26 50 C-26.99 50 -27.98 50 -29 50 C-29.52030916 45.21315569 -28.99115456 42.67337766 -26.5625 38.5 C-24.11452609 34.02800298 -23.62946276 30.45696138 -23.4375 25.375 C-23.11889933 17.2629369 -21.75130845 12.29915507 -15.75 6.75 C-10.88819319 2.92328755 -6.26673127 0 0 0 Z " fill="#E4ECFB" transform="translate(400,695)"/>
<path d="M0 0 C3.54803552 0.09336936 4.75395793 0.74712343 7.25 3.3125 C10.40884468 8.1635829 10.27068631 12.31558744 10 18 C9.34 18.99 8.68 19.98 8 21 C4.50832834 20.70902736 3.23799325 20.24460417 0.75 17.6875 C-1.70247478 13.92119945 -2.15029854 10.82429516 -2.1875 6.375 C-2.20167969 5.59898437 -2.21585937 4.82296875 -2.23046875 4.0234375 C-2 2 -2 2 0 0 Z " fill="#0555DE" transform="translate(415,734)"/>
<path d="M0 0 C3.66635557 0.56281774 5.08246155 1.87876115 7.5 4.625 C17.36316044 14.85550347 29.74218866 19.08228068 43.5625 20.1875 C44.47580078 20.26935547 45.38910156 20.35121094 46.33007812 20.43554688 C48.55273313 20.63337481 50.77573555 20.82135324 53 21 C53.495 22.485 53.495 22.485 54 24 C34.83686902 24.77426792 19.41863821 21.24353277 4.875 7.9296875 C0 2.9125 0 2.9125 0 0 Z " fill="#EAF1FC" transform="translate(393,790)"/>
<path d="M0 0 C1.32 0.33 2.64 0.66 4 1 C9.79541855 17.79119034 8.55415694 32.33752918 3 49 C2.01 49 1.02 49 0 49 C0.43423411 44.94714832 0.92301706 41.27666667 2.01953125 37.3359375 C3.23087207 32.59004563 3.34220758 28.0040058 3.3125 23.125 C3.31121094 22.24529541 3.30992187 21.36559082 3.30859375 20.45922852 C3.22626078 14.90535489 2.69564954 9.99858423 0.65625 4.77734375 C0 3 0 3 0 0 Z " fill="#E0EAFB" transform="translate(493,732)"/>
<path d="M0 0 C11.49360618 2.25132492 20.5400978 5.79627139 27.52734375 15.55859375 C30.70240552 20.82229031 33 25.8138971 33 32 C32.01 32 31.02 32 30 32 C29.58041016 30.7315625 29.58041016 30.7315625 29.15234375 29.4375 C25.76745334 19.85967504 22.3200798 13.02026287 13.125 8.1875 C8.53385594 6.10317693 3.83103433 4.4353073 -1 3 C-0.67 2.01 -0.34 1.02 0 0 Z " fill="#E7EEFB" transform="translate(449,715)"/>
<path d="M0 0 C0.495 1.485 0.495 1.485 1 3 C-0.16015625 3.17015625 -1.3203125 3.3403125 -2.515625 3.515625 C-15.00215041 5.4194182 -26.18756525 7.6529606 -36.84375 14.828125 C-39 16 -39 16 -43 16 C-41.96133657 12.61107627 -40.77871316 11.86388377 -37.69140625 9.96484375 C-36.32287057 9.27346989 -34.94600173 8.59841655 -33.5625 7.9375 C-32.84328369 7.58679443 -32.12406738 7.23608887 -31.38305664 6.87475586 C-21.29683284 2.08545977 -11.19969788 -0.22856526 0 0 Z " fill="#E6EEFB" transform="translate(433,672)"/>
<path d="M0 0 C2 2 2 2 2.25 5.875 C2.04653427 11.77550623 2.04653427 11.77550623 0 14 C-3.5 14.875 -3.5 14.875 -7 15 C-9.40450178 12.59549822 -9.29609139 11.91766058 -9.3125 8.625 C-9.23407673 5.7602439 -9.03912817 4.08912527 -7.875 1.4375 C-5.18023401 -0.62848726 -3.30184112 -0.42151163 0 0 Z " fill="#EEF4FC" transform="translate(443,731)"/>
<path d="M0 0 C3.53571429 0.53571429 3.53571429 0.53571429 5 2 C4.70474584 7.80666518 3.89435619 11.43803989 0 16 C-2.125 17 -2.125 17 -4 17 C-6 15 -6 15 -6.375 11.75 C-5.8557351 6.557351 -3.62661574 3.62661574 0 0 Z " fill="#0B59DF" transform="translate(436,758)"/>
<path d="M0 0 C0.66 0 1.32 0 2 0 C1.53942894 10.36284896 -4.67032664 18.22410619 -11.75390625 25.3203125 C-14.22137338 27.16554879 -15.96838369 27.64835382 -19 28 C-18.875 26.25 -18.875 26.25 -18 24 C-16.58327853 23.12298195 -15.16607106 22.24673667 -13.74609375 21.375 C-7.19897252 16.21932512 -3.41596444 7.39863266 0 0 Z " fill="#ECF2FC" transform="translate(483,784)"/>
<path d="M0 0 C0.99 0 1.98 0 3 0 C3.38478516 1.55847656 3.38478516 1.55847656 3.77734375 3.1484375 C6.09847751 11.82691609 8.56172379 17.78371457 15.20703125 24.1796875 C17 26 17 26 17 28 C11.75011209 27.34263839 9.90083947 25.34783792 6.64453125 21.375 C2.06424825 14.7602445 0.51103966 7.92111475 0 0 Z " fill="#E6EEFB" transform="translate(372,753)"/>
<path d="M0 0 C0.66 0 1.32 0 2 0 C1.55951741 3.08337813 1.0630663 5.83676957 -0.0625 8.75 C-1.97546702 15.38161902 -1.16915227 22.27737444 0 29 C-0.99 29 -1.98 29 -3 29 C-5.70756612 21.87368598 -6.5303492 13.7018421 -4.13671875 6.34765625 C-2.99231393 4.0463622 -1.83558498 1.83558498 0 0 Z " fill="#EDF2FC" transform="translate(392,728)"/>
<path d="M0 0 C2.96078569 1.05101483 3.93779764 1.90059527 5.6328125 4.609375 C6.12523437 5.64578125 6.61765625 6.6821875 7.125 7.75 C7.62257813 8.77609375 8.12015625 9.8021875 8.6328125 10.859375 C10.90937232 16.08895813 12.27327188 20.26129042 12 26 C10.68 25.67 9.36 25.34 8 25 C7.91363281 24.39414062 7.82726562 23.78828125 7.73828125 23.1640625 C6.74820648 17.25994687 5.03367485 12.55303645 2.12109375 7.32421875 C0.9410162 4.8777165 0.42116243 2.67367158 0 0 Z " fill="#E1EBFB" transform="translate(479,697)"/>
<path d="M0 0 C-0.33056575 3.5260347 -1.39891038 5.72001673 -3.375 8.5625 C-6.72007392 13.61404641 -7.79689719 19.13120579 -9 25 C-9.99 25 -10.98 25 -12 25 C-12.87119508 17.33348326 -9.78463885 10.26397824 -5.625 3.89453125 C-2.51677553 0 -2.51677553 0 0 0 Z " fill="#EEF3FC" transform="translate(372,708)"/>
<path d="M0 0 C0.47181905 3.96328 0.17601286 6.25902018 -2.25 9.375 C-5 12 -5 12 -9 12 C-9.47181905 8.03672 -9.17601286 5.74097982 -6.75 2.625 C-4 0 -4 0 0 0 Z " fill="#0857DF" transform="translate(465,748)"/>
<path d="M0 0 C3.625 0.1875 3.625 0.1875 6.625 2.1875 C5.75 6.0625 5.75 6.0625 4.625 7.1875 C-1.11111111 7.46064815 -1.11111111 7.46064815 -3.375 7.1875 C-4.035 6.5275 -4.695 5.8675 -5.375 5.1875 C-4.73668285 0.97460684 -4.40939279 0.24496627 0 0 Z " fill="#0C5ADF" transform="translate(408.375,762.8125)"/>
<path d="M0 0 C-0.26953125 1.91015625 -0.26953125 1.91015625 -1 4 C-2.93965815 4.75613792 -4.88589146 5.50149725 -6.8671875 6.140625 C-9.11126247 7.04483103 -10.51819479 8.08254358 -12.3125 9.6875 C-15 12 -15 12 -18 12 C-17.61887346 9.41058145 -17.22672014 8.22142294 -15.328125 6.3671875 C-6.46073298 0 -6.46073298 0 0 0 Z " fill="#E3ECFB" transform="translate(421,703)"/>
<path d="M0 0 C0.99 0.33 1.98 0.66 3 1 C2.67 3.31 2.34 5.62 2 8 C0.68 8.33 -0.64 8.66 -2 9 C-2.125 5.625 -2.125 5.625 -2 2 C-1.34 1.34 -0.68 0.68 0 0 Z " fill="#0C5ADF" transform="translate(439,734)"/>
<path d="M0 0 C0.66 0 1.32 0 2 0 C1.52153935 4.30614589 0.34073619 6.24880549 -3 9 C-3.99 9.33 -4.98 9.66 -6 10 C-4.63312778 6.01328937 -2.84804907 3.11505367 0 0 Z " fill="#E2EBFB" transform="translate(370,708)"/>
<path d="M0 0 C1.98 0 3.96 0 6 0 C6 1.32 6 2.64 6 4 C3.69 4.33 1.38 4.66 -1 5 C-0.67 3.35 -0.34 1.7 0 0 Z " fill="#D3E1F9" transform="translate(477,769)"/>
<path d="M0 0 C0.66 0 1.32 0 2 0 C1.67 1.98 1.34 3.96 1 6 C0.01 6 -0.98 6 -2 6 C-2.33 5.34 -2.66 4.68 -3 4 C-1.625 2 -1.625 2 0 0 Z " fill="#DEE8FA" transform="translate(392,728)"/>
</svg>
